<svg width="40" height="40" viewBox="0 0 40 40" fill="none" xmlns="http://www.w3.org/2000/svg">
<path fill-rule="evenodd" clip-rule="evenodd" d="M9.74998 31.235C9.83332 30.8017 10.7467 30.3533 11.0967 30.155C12.0701 29.6717 13.1245 29.3723 14.2067 29.2717C19.0617 28.5583 19.6767 31.4183 20.6917 32C22.8867 33.6633 20.3917 26.0633 13.875 27.3767C11.9783 27.76 8.88499 29.54 8.73499 31.1017C8.73572 31.2265 8.78164 31.3469 8.86425 31.4405C8.94686 31.5341 9.06057 31.5946 9.18435 31.6109C9.30814 31.6272 9.43362 31.598 9.5376 31.5289C9.64159 31.4598 9.71703 31.3554 9.74998 31.235ZM11.13 19.6283C10.215 18.5633 9.31665 22.7217 10.38 23.3033C10.491 23.4064 10.6368 23.4637 10.7883 23.4637C10.9398 23.4637 11.0857 23.4064 11.1967 23.3033C11.535 22.7474 11.7083 22.1068 11.6965 21.4562C11.6847 20.8055 11.4882 20.1716 11.13 19.6283ZM20.11 23.3533C20.1104 23.5049 20.1697 23.6504 20.2755 23.759C20.3813 23.8675 20.5251 23.9307 20.6767 23.935C21.4067 23.935 22.505 20.525 21.94 19.81C21.7067 19.4933 21.5567 19.3117 21.34 19.3767C21.1233 19.4433 20.7917 19.3767 20.7417 19.7767C20.0973 20.8502 19.8717 22.1238 20.1083 23.3533M34.9433 17.0333C34.3617 15.1533 33.28 12.045 31.6183 10.88C30.255 10.3133 30.4033 11.68 31.285 12.2933C33.1983 14.455 34.745 20.8583 36.8066 28.21C37.4618 31.0381 37.8457 33.9223 37.9533 36.8233C37.9533 37.14 37.9533 37.5217 36.99 37.0067C35.6083 36.3067 33.9133 34.5117 33.2967 34.3283C33.2967 34.1783 34.18 25.365 32.565 22.455C32.5278 22.3364 32.4538 22.2328 32.3537 22.1593C32.2536 22.0857 32.1326 22.046 32.0083 22.046C31.8841 22.046 31.7631 22.0857 31.6629 22.1593C31.5628 22.2328 31.4888 22.3364 31.4517 22.455C31.9183 27.3433 31.285 24.4 32.1167 34.9933C32 35.16 32.3167 34.9933 29.805 35.9083C28.575 36.8233 28.6417 37.2383 29.805 37.2383L30.6533 36.905C31.5205 36.7646 32.3515 36.4542 33.0983 35.9917C33.3461 36.1717 33.6066 36.3328 33.88 36.475C34.9087 37.5684 36.2037 38.3759 37.6383 38.8183C38.5183 38.8183 39.3 38.5017 39.65 37.155C39.8333 27.7433 36.99 23.5017 34.9433 17.0333Z" fill="#E36358"/>
<path fill-rule="evenodd" clip-rule="evenodd" d="M29.7383 11.495C29.7739 11.3375 29.7681 11.1735 29.7213 11.019C29.6746 10.8644 29.5886 10.7247 29.4717 10.6133C29.121 10.3873 28.7084 10.2766 28.2917 10.2967L25.15 10.05C24.9609 8.35638 24.423 6.72031 23.57 5.245C22.8698 4.00003 21.8087 2.99649 20.5267 2.36667C21.5543 2.01759 22.6507 1.92068 23.7236 2.08409C24.7965 2.24751 25.8144 2.66646 26.6915 3.30564C27.5685 3.94482 28.2791 4.78549 28.7632 5.75679C29.2474 6.72809 29.4909 7.80154 29.4733 8.88667C29.4587 8.97034 29.4626 9.05621 29.4848 9.1382C29.507 9.2202 29.5469 9.29632 29.6017 9.36118C29.6566 9.42604 29.725 9.47807 29.8022 9.51358C29.8794 9.54908 29.9634 9.56721 30.0483 9.56667C30.1329 9.56639 30.2165 9.5477 30.2932 9.5119C30.3698 9.4761 30.4378 9.42405 30.4924 9.35935C30.5469 9.29466 30.5867 9.21887 30.6091 9.13725C30.6314 9.05562 30.6357 8.97012 30.6217 8.88667C30.7883 6.775 29.2583 0.570001 23.5717 0.0383348C21.5475 -0.160205 19.5256 0.436288 17.9333 1.70167C16.7773 1.65279 15.6237 1.84325 14.5448 2.26112C13.4658 2.67898 12.4848 3.31524 11.6633 4.13C9.34999 6.62333 9.54999 10.6467 9.83332 14.1067C9.83332 14.2393 9.886 14.3665 9.97977 14.4602C10.0735 14.554 10.2007 14.6067 10.3333 14.6067C10.4659 14.6067 10.5931 14.554 10.6869 14.4602C10.7806 14.3665 10.8333 14.2393 10.8333 14.1067C10.7912 13.2978 10.7912 12.4872 10.8333 11.6783C11.53 11.6783 15.0233 11.495 16.42 11.445C17.8167 11.395 20.6433 11.7117 24.07 11.7117C24.1767 12.395 24.2378 13.0822 24.2533 13.7733C24.2784 13.9071 24.3494 14.0278 24.4541 14.1147C24.5588 14.2016 24.6906 14.2491 24.8267 14.2491C24.9627 14.2491 25.0945 14.2016 25.1992 14.1147C25.3039 14.0278 25.3749 13.9071 25.4 13.7733C25.4433 13.07 25.4433 12.3661 25.4 11.6617L28.7267 11.545C28.7267 11.695 27.0633 25.015 26.6967 30.6367C26.5356 32.7615 26.4911 34.8936 26.5633 37.0233C21.7459 38.0067 16.8129 38.2974 11.9133 37.8867H8.08666C4.75999 37.7533 2.21666 36.225 2.33166 35.575V33.6467C2.46499 31.9 3.57999 25.6467 3.82832 24.4C4.95999 18.895 4.89332 21.49 7.45499 11.495C7.87166 11.2617 7.78832 10.2483 7.12166 10.2483C6.45499 10.2483 6.60499 11.28 4.90999 16.3683C3.89305 18.8722 3.03741 21.4385 2.34832 24.0517C1.96499 25.715 0.686658 31.785 0.519991 33.4633C0.019991 37.87 0.553324 37.6717 2.33166 38.32C3.06499 38.5867 3.76332 38.9033 4.49499 39.1517C6.83272 39.7565 9.25256 39.981 11.6617 39.8167C15.3595 40.148 19.0838 40.0305 22.7533 39.4667C27.1617 38.7517 27.4933 38.8517 27.9267 38.0867C28.575 37.5867 29.755 11.7117 29.7383 11.495ZM10.9967 10.5167C11.3967 6.94 12.3433 4.62833 16.2017 3.86333C15.7283 4.63763 15.359 5.47091 15.1033 6.34167C14.87 7.15667 14.5883 8.22167 15.42 8.48667C15.4824 8.50756 15.5482 8.51593 15.6139 8.51131C15.6795 8.5067 15.7435 8.48918 15.8024 8.45976C15.8612 8.43034 15.9137 8.38961 15.9567 8.33988C15.9998 8.29016 16.0326 8.23243 16.0533 8.17C16.0489 7.30127 16.2517 6.44401 16.6447 5.66926C17.0377 4.89451 17.6097 4.22458 18.3133 3.715C21.44 3.965 23.0033 6.87333 23.7517 9.93333C19.499 9.36979 15.1801 9.56732 10.9967 10.5167Z" fill="#E36358"/>
</svg>
