<svg width="40" height="40" viewBox="0 0 40 40" fill="none" xmlns="http://www.w3.org/2000/svg">
<circle cx="20" cy="20" r="20" fill="#3C5BA1"/>
<path d="M10 20C10 14.477 14.477 10 20 10C20.463 10 20.54 10.693 20.143 10.933C19.2987 11.4428 18.5814 12.138 18.0455 12.966C17.5097 13.794 17.1693 14.7331 17.0501 15.7122C16.9309 16.6912 17.0361 17.6846 17.3577 18.617C17.6793 19.5493 18.2089 20.3963 18.9063 21.0937C19.6037 21.7911 20.4507 22.3207 21.383 22.6423C22.3154 22.9639 23.3088 23.0691 24.2878 22.9499C25.2669 22.8308 26.206 22.4903 27.034 21.9545C27.862 21.4186 28.5572 20.7014 29.067 19.857C29.307 19.461 30 19.537 30 20C30 21.138 29.81 22.231 29.46 23.25H30C30.1989 23.25 30.3897 23.329 30.5303 23.4697C30.671 23.6103 30.75 23.8011 30.75 24C30.75 24.1989 30.671 24.3897 30.5303 24.5303C30.3897 24.671 30.1989 24.75 30 24.75H10C9.80109 24.75 9.61032 24.671 9.46967 24.5303C9.32902 24.3897 9.25 24.1989 9.25 24C9.25 23.8011 9.32902 23.6103 9.46967 23.4697C9.61032 23.329 9.80109 23.25 10 23.25H10.54C10.1816 22.204 9.99908 21.1058 10 20ZM13 26.25C12.8011 26.25 12.6103 26.329 12.4697 26.4697C12.329 26.6103 12.25 26.8011 12.25 27C12.25 27.1989 12.329 27.3897 12.4697 27.5303C12.6103 27.671 12.8011 27.75 13 27.75H27C27.1989 27.75 27.3897 27.671 27.5303 27.5303C27.671 27.3897 27.75 27.1989 27.75 27C27.75 26.8011 27.671 26.6103 27.5303 26.4697C27.3897 26.329 27.1989 26.25 27 26.25H13ZM16 29.25C15.8011 29.25 15.6103 29.329 15.4697 29.4697C15.329 29.6103 15.25 29.8011 15.25 30C15.25 30.1989 15.329 30.3897 15.4697 30.5303C15.6103 30.671 15.8011 30.75 16 30.75H24C24.1989 30.75 24.3897 30.671 24.5303 30.5303C24.671 30.3897 24.75 30.1989 24.75 30C24.75 29.8011 24.671 29.6103 24.5303 29.4697C24.3897 29.329 24.1989 29.25 24 29.25H16ZM27.9 10.307C27.8647 10.2164 27.8028 10.1386 27.7225 10.0837C27.6422 10.0288 27.5472 9.99948 27.45 9.99948C27.3528 9.99948 27.2578 10.0288 27.1775 10.0837C27.0972 10.1386 27.0353 10.2164 27 10.307L26.57 11.402C26.5461 11.464 26.5096 11.5204 26.4628 11.5676C26.4159 11.6147 26.3598 11.6517 26.298 11.676L25.207 12.108C25.1167 12.144 25.0392 12.2063 24.9846 12.2868C24.93 12.3672 24.9008 12.4623 24.9008 12.5595C24.9008 12.6568 24.93 12.7518 24.9846 12.8323C25.0392 12.9128 25.1167 12.975 25.207 13.011L26.298 13.443C26.3597 13.4673 26.4158 13.504 26.4626 13.551C26.5094 13.598 26.546 13.6542 26.57 13.716L27 14.81C27.162 15.22 27.74 15.22 27.9 14.81L28.33 13.715C28.3541 13.6531 28.3908 13.5968 28.4378 13.5499C28.4848 13.5029 28.5411 13.4661 28.603 13.442L29.694 13.01C29.7843 12.974 29.8618 12.9118 29.9164 12.8313C29.971 12.7508 30.0002 12.6558 30.0002 12.5585C30.0002 12.4613 29.971 12.3662 29.9164 12.2858C29.8618 12.2053 29.7843 12.143 29.694 12.107L28.603 11.675C28.541 11.6508 28.4847 11.6139 28.4377 11.5667C28.3907 11.5196 28.354 11.4631 28.33 11.401L27.9 10.307Z" fill="white"/>
<path d="M24.033 16.13C23.9977 16.0394 23.9358 15.9616 23.8556 15.9067C23.7753 15.8518 23.6803 15.8225 23.583 15.8225C23.4858 15.8225 23.3908 15.8518 23.3105 15.9067C23.2302 15.9616 23.1684 16.0394 23.133 16.13L22.976 16.529C22.952 16.5908 22.9155 16.647 22.8686 16.694C22.8218 16.741 22.7658 16.7778 22.704 16.802L22.306 16.96C22.2157 16.996 22.1382 17.0583 22.0836 17.1388C22.0291 17.2192 21.9999 17.3143 21.9999 17.4115C21.9999 17.5088 22.0291 17.6038 22.0836 17.6843C22.1382 17.7648 22.2157 17.827 22.306 17.863L22.704 18.02C22.829 18.07 22.927 18.168 22.976 18.294L23.133 18.693C23.294 19.103 23.872 19.103 24.033 18.693L24.19 18.293C24.2141 18.2312 24.2506 18.175 24.2974 18.128C24.3442 18.081 24.4003 18.0443 24.462 18.02L24.86 17.863C24.9504 17.827 25.0279 17.7648 25.0824 17.6843C25.137 17.6038 25.1662 17.5088 25.1662 17.4115C25.1662 17.3143 25.137 17.2192 25.0824 17.1388C25.0279 17.0583 24.9504 16.996 24.86 16.96L24.462 16.802C24.4003 16.7778 24.3442 16.741 24.2974 16.694C24.2506 16.647 24.2141 16.5908 24.19 16.529L24.033 16.13Z" fill="white"/>
</svg>
