<svg width="40" height="40" viewBox="0 0 40 40" fill="none" xmlns="http://www.w3.org/2000/svg">
<circle cx="20" cy="20" r="20" fill="#1E1F25"/>
<path d="M20 10V11M20 29V30M30 20H29M11 20H10M27.07 12.93L26.678 13.323M13.322 26.678L12.929 27.071M27.07 27.07L26.678 26.677M13.322 13.322L12.929 12.929M14.341 18C13.8878 19.2831 13.8841 20.6821 14.3307 21.9675C14.7773 23.2529 15.6476 24.3484 16.7987 25.074C17.9498 25.7997 19.3135 26.1125 20.6658 25.9612C22.0181 25.8098 23.2788 25.2033 24.2411 24.2411C25.2033 23.2788 25.8098 22.0181 25.9612 20.6658C26.1125 19.3135 25.7997 17.9498 25.074 16.7987C24.3484 15.6476 23.2529 14.7773 21.9675 14.3307C20.6821 13.8841 19.2831 13.8878 18 14.341" stroke="white" stroke-width="1.5" stroke-linecap="round"/>
</svg>
